<svg xmlns="http://www.w3.org/2000/svg" width="600" height="400">
   <path stroke="white" stroke-width="1.5" fill="black" fill-opacity=".95" d="M16.931133 2.9250619c-10.2219218 0-13.8512581 8.7131141-13.8382425 19.5361261.3150972 118.359302.1436925 236.718312 0 355.077612-.015024 10.82301 3.6163207 19.53614 13.8382425 19.53614H156.9702c2.85515 0 3.43997-6.15033 6.29498-6.15033h273.46964c2.85514 0 3.43998 6.15033 6.29513 6.15033h140.0389c10.22191 0 13.85128-8.71313 13.83826-19.53614-.31495-118.35929-.14384-236.71828 0-355.077612.015-10.823012-3.61635-19.5361261-13.83826-19.5361261h-140.0389c-2.85515 0-3.43999 6.1503589-6.29513 6.1503589H163.26518c-2.85501 0-3.43983-6.1503589-6.29498-6.1503589z"/>
</svg>